<svg xmlns="http://www.w3.org/2000/svg" width="30" height="41" fill="currentColor" viewBox="0 0 30 41">
  <path d="M24.2 2h.02A4 4 0 0 1 28 6v18.22a4 4 0 0 1-3.78 3.77H24l-.04.01h-1.62a2 2 0 0 0-1.78 1.1l-.07.14v.01l-.01.02-4.56 11.1a1 1 0 0 1-1.84 0L9.5 29.25A2 2 0 0 0 7.66 28H6a4 4 0 0 1-3.96-3.44l-.03-.3a1 1 0 0 1 0-.07l-.01-.2V6a4 4 0 0 1 4-4h18.19Z"/>
  <path fill="#fff" fill-rule="evenodd" d="M24.2 2h.02A4 4 0 0 1 28 6v18.22a4 4 0 0 1-3.78 3.77H24l-.04.01h-1.62a2 2 0 0 0-1.78 1.1l-.07.14v.01l-.01.02-4.56 11.1a1 1 0 0 1-1.84 0L9.5 29.25A2 2 0 0 0 7.66 28H6a4 4 0 0 1-3.96-3.44l-.03-.3a1 1 0 0 1 0-.07l-.01-.2V6a4 4 0 0 1 4-4h18.19ZM6 4a2 2 0 0 0-2 2v18.11l.02.18v.03A2 2 0 0 0 6 26h1.66a4 4 0 0 1 3.7 2.48l3.18 7.75a.5.5 0 0 0 .92 0l3.17-7.72.02-.05v-.02l.13-.32.02-.02a4 4 0 0 1 3.54-2.1h1.79a2 2 0 0 0 1.86-1.87v-.02l.01-.14V6a2 2 0 0 0-1.89-2H6Z" clip-rule="evenodd"/>
</svg>
