<svg width="34" height="44" viewBox="0 0 35 45" xmlns="http://www.w3.org/2000/svg"><path d="M32.92 16.93l-3.525-3.525V8.419a1.983 1.983 0 00-1.983-1.982h-4.985L18.9 2.91a1.984 1.984 0 00-2.803 0l-3.524 3.526H7.588a1.983 1.983 0 00-1.982 1.982v4.986L2.081 16.93a1.982 1.982 0 000 2.803l3.525 3.526v4.984c0 1.096.888 1.983 1.982 1.983h4.986L17.457 45l4.97-14.773h4.985a1.983 1.983 0 001.983-1.983V23.26l3.525-3.526a1.982 1.982 0 000-2.803" fill="red" /><g opacity=".15" transform="matrix(1.0667 0 0 -1.0667 -347.3 97.26)"><path d="M342 89c-.476 0-.951-.181-1.314-.544l-3.305-3.305h-4.673a1.858 1.858 0 01-1.859-1.858v-4.674l-3.305-3.305a1.857 1.857 0 010-2.627l3.305-3.305v-4.674a1.86 1.86 0 011.859-1.859h4.673L341.959 49l4.659 13.849h4.674a1.86 1.86 0 011.859 1.859v4.674l3.305 3.305a1.858 1.858 0 010 2.627l-3.305 3.305v4.674a1.859 1.859 0 01-1.859 1.858h-4.674l-3.304 3.305A1.851 1.851 0 01342 89m0-1a.853.853 0 00.607-.251l3.304-3.305.293-.293h5.088a.86.86 0 00.859-.858v-5.088l3.598-3.598A.852.852 0 00356 74a.85.85 0 00-.251-.606l-3.598-3.598v-5.088a.86.86 0 00-.859-.859h-5.393l-.229-.681-3.702-11.006-3.637 11.001-.227.686h-5.396a.86.86 0 00-.859.859v5.088l-3.598 3.598c-.162.162-.251.377-.251.606s.089.445.251.607l3.598 3.598v5.088a.86.86 0 00.859.858h5.087l3.598 3.598A.853.853 0 00342 88" fill="#231f20" /></g></svg>