<svg width="33" height="44" viewBox="0 0 35 45" xmlns="http://www.w3.org/2000/svg"><path d="M28.205 3.217H6.777c-2.367 0-4.286 1.87-4.286 4.179v19.847c0 2.308 1.919 4.179 4.286 4.179h5.357l5.337 13.58 5.377-13.58h5.357c2.366 0 4.285-1.87 4.285-4.179V7.396c0-2.308-1.919-4.179-4.285-4.179" fill="red" /><g opacity=".15" transform="matrix(1.0714 0 0 -1.0714 -233.22 146.783)"><path d="M244 134h-20c-2.209 0-4-1.746-4-3.9v-18.525c0-2.154 1.791-3.9 4-3.9h5L233.982 95 239 107.675h5c2.209 0 4 1.746 4 3.9V130.1c0 2.154-1.791 3.9-4 3.9m0-1c1.654 0 3-1.301 3-2.9v-18.525c0-1.599-1.346-2.9-3-2.9h-5.68l-.25-.632-4.084-10.318-4.055 10.316-.249.634H224c-1.654 0-3 1.301-3 2.9V130.1c0 1.599 1.346 2.9 3 2.9h20" fill="#231f20" /></g></svg>